<svg xmlns="http://www.w3.org/2000/svg" viewBox="0 0 64 64" width="500px" height="500px"><linearGradient id="UMpglcigJnkqeIyEOBegua" x1="32" x2="32" y1="9" y2="55" gradientUnits="userSpaceOnUse" spreadMethod="reflect"><stop offset="0" stop-color="#1a6dff"/><stop offset="1" stop-color="#c822ff"/></linearGradient><path fill="url(#UMpglcigJnkqeIyEOBegua)" d="M50,9H14c-2.757,0-5,2.243-5,5v36c0,2.757,2.243,5,5,5h28.864L55,42.864V14 C55,11.243,52.757,9,50,9z M11,50V14c0-1.654,1.346-3,3-3h36c1.654,0,3,1.346,3,3v27h-7c-2.757,0-5,2.243-5,5v7H14 C12.346,53,11,51.654,11,50z M52.036,43L43,52.036V46c0-1.654,1.346-3,3-3H52.036z"/><linearGradient id="UMpglcigJnkqeIyEOBegub" x1="32" x2="32" y1="17.5" y2="46.752" gradientUnits="userSpaceOnUse" spreadMethod="reflect"><stop offset="0" stop-color="#6dc7ff"/><stop offset="1" stop-color="#e6abff"/></linearGradient><path fill="url(#UMpglcigJnkqeIyEOBegub)" d="M32,17c-5.514,0-10,4.486-10,10c0,3.613,1.9,6.878,5,8.663V44c0,0.553,0.447,1,1,1h2v2h4v-2h2 c0.553,0,1-0.447,1-1v-8.337c3.1-1.785,5-5.05,5-8.663C42,21.486,37.514,17,32,17z M29,43v-2h6v2H29z M35.555,34.169 C35.215,34.338,35,34.685,35,35.064V39h-6v-3.936c0-0.38-0.215-0.727-0.555-0.896C25.703,32.807,24,30.06,24,27c0-4.411,3.589-8,8-8 s8,3.589,8,8C40,30.06,38.297,32.807,35.555,34.169z"/></svg>